<mxfile host="app.diagrams.net" modified="2023-06-20T09:25:06.078Z" agent="5.0 (Windows NT 10.0; Win64; x64) AppleWebKit/537.36 (KHTML, like Gecko) Chrome/114.0.0.0 Safari/537.36" etag="Y7Rjofr5HuWigplrV2Ej" version="20.8.23" type="github">
  <diagram name="第 1 页" id="4ajVb8horbUKPDlNTRja">
    <mxGraphModel dx="1195" dy="630" grid="1" gridSize="10" guides="1" tooltips="1" connect="1" arrows="1" fold="1" page="1" pageScale="1" pageWidth="827" pageHeight="1169" math="0" shadow="0">
      <root>
        <mxCell id="0" />
        <mxCell id="1" parent="0" />
        <mxCell id="Yrlr1dtHVRzyMIflViWs-11" value="" style="group" vertex="1" connectable="0" parent="1">
          <mxGeometry x="24" y="80" width="390" height="230" as="geometry" />
        </mxCell>
        <mxCell id="Yrlr1dtHVRzyMIflViWs-1" value="" style="shape=image;verticalLabelPosition=bottom;labelBackgroundColor=default;verticalAlign=top;aspect=fixed;imageAspect=0;image=https://upload.wikimedia.org/wikipedia/commons/thumb/b/bc/Neuron_Hand-tuned.svg/1200px-Neuron_Hand-tuned.svg.png;" vertex="1" parent="Yrlr1dtHVRzyMIflViWs-11">
          <mxGeometry y="10" width="390" height="210" as="geometry" />
        </mxCell>
        <mxCell id="Yrlr1dtHVRzyMIflViWs-3" value="轴突终末" style="text;html=1;strokeColor=none;fillColor=none;align=center;verticalAlign=middle;whiteSpace=wrap;rounded=0;" vertex="1" parent="Yrlr1dtHVRzyMIflViWs-11">
          <mxGeometry x="310" y="20" width="60" height="30" as="geometry" />
        </mxCell>
        <mxCell id="Yrlr1dtHVRzyMIflViWs-4" value="细胞核" style="text;html=1;align=center;verticalAlign=middle;resizable=0;points=[];autosize=1;strokeColor=none;fillColor=none;" vertex="1" parent="Yrlr1dtHVRzyMIflViWs-11">
          <mxGeometry x="10" y="200" width="60" height="30" as="geometry" />
        </mxCell>
        <mxCell id="Yrlr1dtHVRzyMIflViWs-5" value="细胞体" style="text;html=1;align=center;verticalAlign=middle;resizable=0;points=[];autosize=1;strokeColor=none;fillColor=none;" vertex="1" parent="Yrlr1dtHVRzyMIflViWs-11">
          <mxGeometry x="112" y="69" width="60" height="30" as="geometry" />
        </mxCell>
        <mxCell id="Yrlr1dtHVRzyMIflViWs-6" value="树突" style="text;html=1;align=center;verticalAlign=middle;resizable=0;points=[];autosize=1;strokeColor=none;fillColor=none;" vertex="1" parent="Yrlr1dtHVRzyMIflViWs-11">
          <mxGeometry x="45" width="50" height="30" as="geometry" />
        </mxCell>
        <mxCell id="Yrlr1dtHVRzyMIflViWs-7" value="" style="rounded=0;whiteSpace=wrap;html=1;strokeColor=none;" vertex="1" parent="Yrlr1dtHVRzyMIflViWs-11">
          <mxGeometry x="220" y="162" width="80" height="30" as="geometry" />
        </mxCell>
        <mxCell id="Yrlr1dtHVRzyMIflViWs-8" value="" style="rounded=0;whiteSpace=wrap;html=1;strokeColor=none;rotation=-30;" vertex="1" parent="Yrlr1dtHVRzyMIflViWs-11">
          <mxGeometry x="230" y="142" width="80" height="30" as="geometry" />
        </mxCell>
        <mxCell id="Yrlr1dtHVRzyMIflViWs-9" value="" style="rounded=0;whiteSpace=wrap;html=1;strokeColor=none;rotation=15;" vertex="1" parent="Yrlr1dtHVRzyMIflViWs-11">
          <mxGeometry x="189" y="90" width="80" height="30" as="geometry" />
        </mxCell>
        <mxCell id="Yrlr1dtHVRzyMIflViWs-10" value="" style="rounded=0;whiteSpace=wrap;html=1;strokeColor=none;" vertex="1" parent="Yrlr1dtHVRzyMIflViWs-11">
          <mxGeometry x="189" y="69" width="80" height="30" as="geometry" />
        </mxCell>
      </root>
    </mxGraphModel>
  </diagram>
</mxfile>
